<svg width="599" height="204" viewBox="0 0 599 204" fill="none" xmlns="http://www.w3.org/2000/svg">
<path d="M59.133 92.8H7.29297V1.408H59.133V21.248H33.405V35.584H57.213V55.424H33.405V72.704H59.133V92.8Z" fill="#39211B"/>
<path d="M131.679 65.024C131.679 69.9733 130.527 74.6667 128.223 79.104C126.004 83.5413 122.335 87.168 117.215 89.984C112.095 92.7147 105.311 94.08 96.863 94.08C92.4256 94.08 88.671 93.8667 85.599 93.44C82.6123 93.0987 79.8816 92.5013 77.407 91.648C74.9323 90.7947 72.2016 89.6853 69.215 88.32V66.304C74.1643 68.7787 79.1136 70.6987 84.063 72.064C89.0123 73.344 93.279 73.984 96.863 73.984C98.7403 73.984 100.319 73.6853 101.599 73.088C102.879 72.4907 103.818 71.68 104.415 70.656C105.098 69.632 105.439 68.48 105.439 67.2C105.439 65.5787 105.055 64.2133 104.287 63.104C103.519 61.9947 102.068 60.8427 99.935 59.648C97.8016 58.4533 94.687 57.0027 90.591 55.296C86.751 53.6747 83.4656 52.0107 80.735 50.304C78.0896 48.5973 75.9563 46.6773 74.335 44.544C72.7136 42.4107 71.519 39.936 70.751 37.12C69.983 34.2187 69.599 30.8053 69.599 26.88C69.599 20.992 71.0496 16.0853 73.951 12.16C76.9376 8.14933 80.991 5.16266 86.111 3.2C91.231 1.152 97.119 0.127998 103.775 0.127998C110.09 0.127998 115.594 0.810666 120.287 2.176C125.066 3.456 128.948 4.94933 131.935 6.656L124.127 25.728C120.714 23.936 117.087 22.528 113.247 21.504C109.407 20.3947 105.994 19.84 103.007 19.84C101.215 19.84 99.7643 20.096 98.655 20.608C97.5456 21.12 96.735 21.8453 96.223 22.784C95.711 23.6373 95.455 24.6187 95.455 25.728C95.455 27.1787 95.9243 28.4587 96.863 29.568C97.887 30.6773 99.6363 31.9147 102.111 33.28C104.671 34.56 108.212 36.3093 112.735 38.528C116.831 40.4053 120.287 42.496 123.103 44.8C125.919 47.104 128.052 49.8773 129.503 53.12C130.954 56.2773 131.679 60.2453 131.679 65.024Z" fill="#39211B"/>
<path d="M174.644 1.408C185.481 1.408 193.673 3.92533 199.22 8.96C204.852 13.9947 207.668 21.1627 207.668 30.464C207.668 34.6453 207.113 38.656 206.004 42.496C204.895 46.2507 203.103 49.664 200.628 52.736C198.153 55.7227 194.868 58.112 190.772 59.904C186.676 61.6107 181.599 62.464 175.54 62.464H169.78V92.8H143.668V1.408H174.644ZM174.516 21.376H169.78V42.368H173.492C174.772 42.368 176.052 42.0267 177.332 41.344C178.612 40.576 179.679 39.3813 180.532 37.76C181.385 36.0533 181.812 33.8347 181.812 31.104C181.812 28.2027 181.215 25.856 180.02 24.064C178.825 22.272 176.991 21.376 174.516 21.376Z" fill="#39211B"/>
<path d="M249.995 1.408C257.76 1.408 264.246 2.432 269.451 4.48C274.742 6.528 278.71 9.55733 281.355 13.568C284 17.4933 285.323 22.4427 285.323 28.416C285.323 32.0853 284.811 35.456 283.787 38.528C282.848 41.6 281.355 44.3307 279.307 46.72C277.344 49.1093 274.784 51.2 271.627 52.992L296.459 92.8H266.763L249.867 59.52H246.155V92.8H220.043V1.408H249.995ZM250.123 20.096H246.155V40.96H249.611C251.062 40.96 252.512 40.6187 253.963 39.936C255.414 39.168 256.608 37.9733 257.547 36.352C258.571 34.6453 259.083 32.384 259.083 29.568C259.083 27.6053 258.784 25.9413 258.187 24.576C257.59 23.1253 256.651 22.016 255.371 21.248C254.091 20.48 252.342 20.096 250.123 20.096Z" fill="#39211B"/>
<path d="M354.383 92.8H302.543V1.408H354.383V21.248H328.655V35.584H352.463V55.424H328.655V72.704H354.383V92.8Z" fill="#39211B"/>
<path d="M426.929 65.024C426.929 69.9733 425.777 74.6667 423.473 79.104C421.254 83.5413 417.585 87.168 412.465 89.984C407.345 92.7147 400.561 94.08 392.113 94.08C387.676 94.08 383.921 93.8667 380.849 93.44C377.862 93.0987 375.132 92.5013 372.657 91.648C370.182 90.7947 367.452 89.6853 364.465 88.32V66.304C369.414 68.7787 374.364 70.6987 379.313 72.064C384.262 73.344 388.529 73.984 392.113 73.984C393.99 73.984 395.569 73.6853 396.849 73.088C398.129 72.4907 399.068 71.68 399.665 70.656C400.348 69.632 400.689 68.48 400.689 67.2C400.689 65.5787 400.305 64.2133 399.537 63.104C398.769 61.9947 397.318 60.8427 395.185 59.648C393.052 58.4533 389.937 57.0027 385.841 55.296C382.001 53.6747 378.716 52.0107 375.985 50.304C373.34 48.5973 371.206 46.6773 369.585 44.544C367.964 42.4107 366.769 39.936 366.001 37.12C365.233 34.2187 364.849 30.8053 364.849 26.88C364.849 20.992 366.3 16.0853 369.201 12.16C372.188 8.14933 376.241 5.16266 381.361 3.2C386.481 1.152 392.369 0.127998 399.025 0.127998C405.34 0.127998 410.844 0.810666 415.537 2.176C420.316 3.456 424.198 4.94933 427.185 6.656L419.377 25.728C415.964 23.936 412.337 22.528 408.497 21.504C404.657 20.3947 401.244 19.84 398.257 19.84C396.465 19.84 395.014 20.096 393.905 20.608C392.796 21.12 391.985 21.8453 391.473 22.784C390.961 23.6373 390.705 24.6187 390.705 25.728C390.705 27.1787 391.174 28.4587 392.113 29.568C393.137 30.6773 394.886 31.9147 397.361 33.28C399.921 34.56 403.462 36.3093 407.985 38.528C412.081 40.4053 415.537 42.496 418.353 44.8C421.169 47.104 423.302 49.8773 424.753 53.12C426.204 56.2773 426.929 60.2453 426.929 65.024Z" fill="#39211B"/>
<path d="M498.054 65.024C498.054 69.9733 496.902 74.6667 494.598 79.104C492.379 83.5413 488.71 87.168 483.59 89.984C478.47 92.7147 471.686 94.08 463.238 94.08C458.801 94.08 455.046 93.8667 451.974 93.44C448.987 93.0987 446.257 92.5013 443.782 91.648C441.307 90.7947 438.577 89.6853 435.59 88.32V66.304C440.539 68.7787 445.489 70.6987 450.438 72.064C455.387 73.344 459.654 73.984 463.238 73.984C465.115 73.984 466.694 73.6853 467.974 73.088C469.254 72.4907 470.193 71.68 470.79 70.656C471.473 69.632 471.814 68.48 471.814 67.2C471.814 65.5787 471.43 64.2133 470.662 63.104C469.894 61.9947 468.443 60.8427 466.31 59.648C464.177 58.4533 461.062 57.0027 456.966 55.296C453.126 53.6747 449.841 52.0107 447.11 50.304C444.465 48.5973 442.331 46.6773 440.71 44.544C439.089 42.4107 437.894 39.936 437.126 37.12C436.358 34.2187 435.974 30.8053 435.974 26.88C435.974 20.992 437.425 16.0853 440.326 12.16C443.313 8.14933 447.366 5.16266 452.486 3.2C457.606 1.152 463.494 0.127998 470.15 0.127998C476.465 0.127998 481.969 0.810666 486.662 2.176C491.441 3.456 495.323 4.94933 498.31 6.656L490.502 25.728C487.089 23.936 483.462 22.528 479.622 21.504C475.782 20.3947 472.369 19.84 469.382 19.84C467.59 19.84 466.139 20.096 465.03 20.608C463.921 21.12 463.11 21.8453 462.598 22.784C462.086 23.6373 461.83 24.6187 461.83 25.728C461.83 27.1787 462.299 28.4587 463.238 29.568C464.262 30.6773 466.011 31.9147 468.486 33.28C471.046 34.56 474.587 36.3093 479.11 38.528C483.206 40.4053 486.662 42.496 489.478 44.8C492.294 47.104 494.427 49.8773 495.878 53.12C497.329 56.2773 498.054 60.2453 498.054 65.024Z" fill="#39211B"/>
<path d="M591.707 46.976C591.707 54.0587 590.896 60.5013 589.275 66.304C587.739 72.0213 585.264 76.9707 581.851 81.152C578.523 85.3333 574.171 88.5333 568.795 90.752C563.504 92.9707 557.062 94.08 549.467 94.08C542.043 94.08 535.686 92.9707 530.395 90.752C525.104 88.5333 520.752 85.3333 517.339 81.152C513.926 76.9707 511.366 72.0213 509.659 66.304C508.038 60.5013 507.227 54.016 507.227 46.848C507.227 37.376 508.72 29.1413 511.707 22.144C514.694 15.0613 519.302 9.6 525.531 5.76C531.76 1.92 539.782 0 549.595 0C559.664 0 567.771 1.96267 573.915 5.888C580.144 9.728 584.667 15.1893 587.483 22.272C590.299 29.2693 591.707 37.504 591.707 46.976ZM534.619 46.976C534.619 52.4373 535.088 57.1733 536.027 61.184C537.051 65.1093 538.672 68.1387 540.891 70.272C543.11 72.4053 545.968 73.472 549.467 73.472C553.222 73.472 556.166 72.4053 558.299 70.272C560.432 68.1387 561.968 65.1093 562.907 61.184C563.846 57.1733 564.315 52.4373 564.315 46.976C564.315 38.6987 563.206 32.1707 560.987 27.392C558.854 22.6133 555.056 20.224 549.595 20.224C545.926 20.224 542.982 21.3333 540.763 23.552C538.544 25.6853 536.966 28.7573 536.027 32.768C535.088 36.6933 534.619 41.4293 534.619 46.976Z" fill="#39211B"/>
<path d="M137.557 110.408C145.323 110.408 151.808 111.432 157.013 113.48C162.304 115.528 166.272 118.557 168.917 122.568C171.563 126.493 172.885 131.443 172.885 137.416C172.885 141.085 172.373 144.456 171.349 147.528C170.411 150.6 168.917 153.331 166.869 155.72C164.907 158.109 162.347 160.2 159.189 161.992L184.021 201.8H154.325L137.429 168.52H133.717V201.8H107.605V110.408H137.557ZM137.685 129.096H133.717V149.96H137.173C138.624 149.96 140.075 149.619 141.525 148.936C142.976 148.168 144.171 146.973 145.109 145.352C146.133 143.645 146.645 141.384 146.645 138.568C146.645 136.605 146.347 134.941 145.749 133.576C145.152 132.125 144.213 131.016 142.933 130.248C141.653 129.48 139.904 129.096 137.685 129.096Z" fill="#7F4730"/>
<path d="M241.945 201.8H190.105V110.408H241.945V130.248H216.217V144.584H240.025V164.424H216.217V181.704H241.945V201.8Z" fill="#7F4730"/>
<path d="M295.931 201.8H269.819V130.632H250.235V110.408H315.515V130.632H295.931V201.8Z" fill="#7F4730"/>
<path d="M357.182 110.408C364.948 110.408 371.433 111.432 376.638 113.48C381.929 115.528 385.897 118.557 388.542 122.568C391.188 126.493 392.51 131.443 392.51 137.416C392.51 141.085 391.998 144.456 390.974 147.528C390.036 150.6 388.542 153.331 386.494 155.72C384.532 158.109 381.972 160.2 378.814 161.992L403.646 201.8H373.95L357.054 168.52H353.342V201.8H327.23V110.408H357.182ZM357.31 129.096H353.342V149.96H356.798C358.249 149.96 359.7 149.619 361.15 148.936C362.601 148.168 363.796 146.973 364.734 145.352C365.758 143.645 366.27 141.384 366.27 138.568C366.27 136.605 365.972 134.941 365.374 133.576C364.777 132.125 363.838 131.016 362.558 130.248C361.278 129.48 359.529 129.096 357.31 129.096Z" fill="#7F4730"/>
<path d="M491.394 155.976C491.394 163.059 490.584 169.501 488.962 175.304C487.426 181.021 484.952 185.971 481.538 190.152C478.21 194.333 473.858 197.533 468.482 199.752C463.192 201.971 456.749 203.08 449.154 203.08C441.73 203.08 435.373 201.971 430.082 199.752C424.792 197.533 420.44 194.333 417.026 190.152C413.613 185.971 411.053 181.021 409.346 175.304C407.725 169.501 406.914 163.016 406.914 155.848C406.914 146.376 408.408 138.141 411.394 131.144C414.381 124.061 418.989 118.6 425.218 114.76C431.448 110.92 439.469 109 449.282 109C459.352 109 467.458 110.963 473.602 114.888C479.832 118.728 484.354 124.189 487.17 131.272C489.986 138.269 491.394 146.504 491.394 155.976ZM434.306 155.976C434.306 161.437 434.776 166.173 435.714 170.184C436.738 174.109 438.36 177.139 440.578 179.272C442.797 181.405 445.656 182.472 449.154 182.472C452.909 182.472 455.853 181.405 457.986 179.272C460.12 177.139 461.656 174.109 462.594 170.184C463.533 166.173 464.002 161.437 464.002 155.976C464.002 147.699 462.893 141.171 460.674 136.392C458.541 131.613 454.744 129.224 449.282 129.224C445.613 129.224 442.669 130.333 440.45 132.552C438.232 134.685 436.653 137.757 435.714 141.768C434.776 145.693 434.306 150.429 434.306 155.976Z" fill="#7F4730"/>
</svg>
